<svg width="256" height="256" viewBox="0 0 256 256" fill="none" xmlns="http://www.w3.org/2000/svg">
<g clip-path="url(#clip0)">
<path d="M188.142 81.7506L137.499 52.7514C134.536 51.0481 131.176 50.157 127.758 50.1681C124.341 50.1791 120.986 51.0919 118.034 52.8142L67.5772 82.1627C64.6306 83.8824 62.186 86.3439 60.4868 89.3023C58.7875 92.2607 57.8929 95.6126 57.8921 99.0242L58.0899 157.406C58.1105 160.825 59.0269 164.178 60.7477 167.133C62.4684 170.087 64.9335 172.538 67.8971 174.242L118.526 203.234C121.49 204.939 124.852 205.833 128.273 205.823C131.693 205.813 135.05 204.901 138.005 203.179L188.477 173.821C191.414 172.089 193.848 169.619 195.538 166.656C197.228 163.694 198.115 160.341 198.112 156.931L197.913 98.5494C197.889 95.1408 196.974 91.7978 195.26 88.8513C193.547 85.9049 191.093 83.4572 188.142 81.7506V81.7506Z" fill="#FFF19F"/>
<path d="M165.172 99.4162L133.871 81.4931C132.04 80.4405 129.963 79.8897 127.851 79.8965C125.739 79.9033 123.666 80.4674 121.841 81.5318L90.6567 99.6708C88.8351 100.734 87.3239 102.256 86.2736 104.085C85.2234 105.914 84.6708 107.986 84.6709 110.095L84.7931 146.178C84.8049 148.291 85.3706 150.365 86.4339 152.191C87.4972 154.018 89.0209 155.533 90.8529 156.587L122.144 174.506C123.976 175.56 126.054 176.112 128.168 176.106C130.282 176.1 132.357 175.536 134.184 174.471L165.377 156.327C167.194 155.256 168.699 153.729 169.743 151.897C170.788 150.065 171.336 147.992 171.333 145.883L171.211 109.801C171.196 107.694 170.631 105.627 169.572 103.806C168.513 101.984 166.996 100.471 165.172 99.4162V99.4162Z" fill="#FFDD0F"/>
<path d="M150.973 110.333L131.628 99.2564C130.496 98.6057 129.212 98.2653 127.907 98.2696C126.602 98.2738 125.321 98.6225 124.193 99.2805L104.923 110.492C103.797 111.149 102.863 112.089 102.214 113.219C101.565 114.35 101.224 115.63 101.224 116.933L101.299 139.235C101.307 140.54 101.657 141.821 102.314 142.95C102.972 144.078 103.913 145.015 105.045 145.666L124.384 156.74C125.516 157.391 126.801 157.733 128.107 157.729C129.413 157.725 130.696 157.377 131.825 156.719L151.104 145.505C152.226 144.843 153.156 143.9 153.802 142.768C154.447 141.636 154.787 140.356 154.786 139.053L154.71 116.752C154.7 115.449 154.35 114.172 153.694 113.046C153.039 111.92 152.101 110.985 150.973 110.333V110.333Z" fill="#FFDD0F"/>
<path d="M344.178 81.2214L293.535 52.223C290.572 50.5196 287.211 49.6284 283.794 49.6393C280.376 49.6501 277.022 50.5628 274.07 52.2849L223.612 81.6343C220.665 83.3544 218.221 85.8167 216.521 88.7759C214.822 91.7351 213.928 95.0878 213.928 98.5001L214.126 156.881C214.146 160.3 215.063 163.654 216.784 166.608C218.504 169.562 220.97 172.014 223.933 173.718L274.563 202.709C277.527 204.415 280.89 205.309 284.31 205.299C287.73 205.289 291.087 204.377 294.042 202.654L344.513 173.297C347.451 171.564 349.885 169.094 351.575 166.132C353.264 163.169 354.152 159.817 354.148 156.407L353.95 98.0253C353.926 94.6158 353.012 91.2718 351.298 88.3244C349.584 85.377 347.13 82.9285 344.178 81.2214V81.2214Z" fill="#FFF19F"/>
<path d="M321.205 98.8866L289.906 80.9644C288.075 79.9117 285.998 79.3609 283.886 79.3677C281.773 79.3745 279.7 79.9386 277.876 81.0031L246.69 99.1421C244.869 100.205 243.358 101.727 242.308 103.556C241.258 105.385 240.705 107.457 240.705 109.566L240.828 145.648C240.839 147.762 241.405 149.835 242.468 151.662C243.532 153.488 245.055 155.004 246.887 156.058L278.178 173.975C280.011 175.03 282.088 175.582 284.202 175.576C286.316 175.57 288.391 175.007 290.217 173.942L321.411 155.798C323.227 154.727 324.731 153.2 325.776 151.369C326.821 149.538 327.369 147.466 327.367 145.358L327.245 109.275C327.23 107.168 326.666 105.1 325.606 103.278C324.547 101.456 323.03 99.942 321.205 98.8866V98.8866Z" fill="#FFEB6F"/>
<path d="M29.6661 82.2897L-20.9777 53.2904C-23.9407 51.5872 -27.3008 50.6961 -30.7185 50.7071C-34.1361 50.7182 -37.4904 51.6309 -40.4424 53.3532L-90.8997 82.7018C-93.8461 84.4215 -96.2906 86.8832 -97.9897 89.8415C-99.6888 92.7999 -100.583 96.1517 -100.584 99.5633L-100.386 157.945C-100.366 161.364 -99.4492 164.718 -97.7284 167.672C-96.0076 170.626 -93.5425 173.077 -90.5788 174.781L-39.9495 203.773C-36.9849 205.478 -33.6227 206.372 -30.2024 206.362C-26.7821 206.352 -23.4251 205.44 -20.4703 203.718L30.0009 174.361C32.9385 172.628 35.3724 170.158 37.0623 167.195C38.7522 164.233 39.6395 160.88 39.636 157.47L39.4382 99.0884C39.4134 95.6798 38.4986 92.3368 36.7847 89.3904C35.0707 86.4439 32.6169 83.9963 29.6661 82.2897V82.2897Z" fill="#FFF19F"/>
<path d="M6.69563 99.9528L-24.604 82.0305C-26.4352 80.9776 -28.5118 80.4265 -30.6241 80.4332C-32.7365 80.4398 -34.8096 81.0039 -36.6341 82.0684L-67.8193 100.207C-69.6408 101.271 -71.152 102.792 -72.2022 104.621C-73.2525 106.45 -73.8051 108.522 -73.8052 110.631L-73.6823 146.714C-73.6706 148.828 -73.1049 150.901 -72.0416 152.728C-70.9782 154.554 -69.4544 156.07 -67.6223 157.124L-36.3315 175.042C-34.4993 176.097 -32.4212 176.649 -30.3074 176.643C-28.1936 176.637 -26.1187 176.073 -24.2926 175.008L6.90125 156.864C8.71685 155.793 10.2213 154.267 11.2659 152.436C12.3105 150.605 12.8588 148.533 12.8569 146.425L12.7348 110.342C12.7208 108.235 12.1561 106.167 11.0968 104.345C10.0375 102.522 8.5203 101.008 6.69563 99.9528V99.9528Z" fill="#FFEB6F"/>
<path d="M265.796 -57.2201L215.153 -86.2211C212.19 -87.9246 208.83 -88.8159 205.412 -88.8048C201.994 -88.7938 198.64 -87.8809 195.688 -86.1583L145.231 -56.8098C142.284 -55.0901 139.84 -52.6286 138.14 -49.6702C136.441 -46.7118 135.547 -43.3599 135.546 -39.9483L135.745 18.433C135.765 21.8518 136.681 25.2056 138.402 28.1598C140.123 31.114 142.588 33.5654 145.552 35.2696L196.181 64.2611C199.146 65.967 202.508 66.8603 205.928 66.8506C209.348 66.841 212.706 65.9287 215.66 64.206L266.131 34.8489C269.069 33.1159 271.503 30.646 273.193 27.6835C274.883 24.7211 275.77 21.3687 275.767 17.9581L275.569 -40.4231C275.543 -43.8315 274.628 -47.1741 272.914 -50.1202C271.2 -53.0663 268.746 -55.5137 265.796 -57.2201V-57.2201Z" fill="#FFF19F"/>
<path d="M242.826 -39.5546L211.525 -57.4777C209.694 -58.5304 207.617 -59.0812 205.505 -59.0744C203.393 -59.0676 201.32 -58.5035 199.496 -57.439L168.311 -39.3C166.489 -38.2371 164.978 -36.7153 163.927 -34.8863C162.877 -33.0573 162.324 -30.985 162.325 -28.8759L162.447 7.20685C162.459 9.32027 163.024 11.3937 164.088 13.2202C165.151 15.0467 166.675 16.5624 168.507 17.6163L199.799 35.5342C201.631 36.5889 203.709 37.1412 205.823 37.1353C207.936 37.1294 210.011 36.5655 211.837 35.5007L243.031 17.3565C244.847 16.2855 246.351 14.759 247.396 12.928C248.441 11.097 248.989 9.02495 248.987 6.91693L248.865 -29.165C248.851 -31.2729 248.286 -33.3405 247.227 -35.1629C246.167 -36.9853 244.65 -38.4993 242.826 -39.5546Z" fill="#FFEB6F"/>
<path d="M84.5345 -39.5546L53.234 -57.4777C51.4028 -58.5304 49.3263 -59.0812 47.2141 -59.0744C45.1019 -59.0676 43.0291 -58.5035 41.2047 -57.439L10.0195 -39.3C8.19786 -38.2371 6.68648 -36.7153 5.63622 -34.8863C4.58595 -33.0573 4.03347 -30.985 4.03369 -28.8759L4.15572 7.20685C4.16756 9.32027 4.73339 11.3937 5.79668 13.2202C6.85997 15.0467 8.38373 16.5624 10.2157 17.6163L41.5076 35.5342C43.3396 36.5889 45.4176 37.1412 47.5315 37.1353C49.6454 37.1294 51.7202 36.5655 53.5463 35.5007L84.7401 17.3565C86.5558 16.2855 88.0604 14.759 89.1049 12.928C90.1495 11.097 90.6981 9.02495 90.6959 6.91693L90.5737 -29.165C90.5597 -31.2729 89.995 -33.3405 88.9357 -35.1629C87.8763 -36.9853 86.3592 -38.4993 84.5345 -39.5546V-39.5546Z" fill="#FFDD0F"/>
<path d="M228.628 -28.6381L209.281 -39.7151C208.149 -40.3657 206.866 -40.7061 205.561 -40.7019C204.255 -40.6976 202.974 -40.3489 201.846 -39.691L182.576 -28.4806C181.45 -27.8236 180.516 -26.883 179.867 -25.7526C179.218 -24.6222 178.877 -23.3415 178.877 -22.038L178.953 0.263094C178.96 1.56886 179.31 2.84979 179.968 3.97812C180.625 5.10646 181.566 6.04276 182.698 6.69368L202.037 17.7681C203.17 18.4198 204.454 18.761 205.761 18.7574C207.068 18.7538 208.35 18.4054 209.479 17.7474L228.758 6.53369C229.88 5.87164 230.81 4.92814 231.455 3.79653C232.101 2.66492 232.44 1.3844 232.439 0.0815754L232.363 -22.2195C232.354 -23.5221 232.004 -24.7995 231.349 -25.9253C230.694 -27.0512 229.756 -27.9863 228.628 -28.6381V-28.6381Z" fill="#FFDD0F"/>
<path d="M107.025 -56.6822L56.3805 -85.6805C53.4177 -87.3841 50.0578 -88.2753 46.6402 -88.2643C43.2226 -88.2533 39.8684 -87.3403 36.9166 -85.6177L-13.5405 -56.2692C-16.487 -54.5496 -18.9316 -52.088 -20.6309 -49.1296C-22.3301 -46.1713 -23.2248 -42.8194 -23.2256 -39.4077L-23.0277 18.9736C-23.0074 22.3923 -22.091 25.7461 -20.3702 28.7003C-18.6494 31.6545 -16.1842 34.1059 -13.2204 35.8101L37.4087 64.8016C40.3733 66.5075 43.7355 67.4007 47.1558 67.3911C50.5761 67.3814 53.9333 66.4692 56.8881 64.7466L107.359 35.3895C110.297 33.6567 112.731 31.1868 114.421 28.2243C116.111 25.2618 116.998 21.9093 116.994 18.4987L116.796 -39.8826C116.772 -43.2914 115.857 -46.6346 114.143 -49.5812C112.43 -52.5279 109.975 -54.9757 107.025 -56.6822V-56.6822Z" fill="#FFF19F"/>
<path d="M265.796 220.724L215.153 191.726C212.19 190.022 208.83 189.131 205.412 189.142C201.994 189.153 198.64 190.066 195.688 191.789L145.231 221.137C142.284 222.857 139.839 225.32 138.139 228.279C136.44 231.238 135.546 234.591 135.546 238.003L135.745 296.384C135.765 299.803 136.681 303.157 138.402 306.111C140.123 309.065 142.588 311.517 145.552 313.221L196.181 342.212C199.146 343.918 202.508 344.811 205.928 344.802C209.348 344.792 212.706 343.88 215.66 342.157L266.131 312.8C269.069 311.067 271.503 308.597 273.193 305.635C274.883 302.672 275.77 299.32 275.767 295.909L275.569 237.528C275.544 234.119 274.63 230.775 272.916 227.827C271.202 224.88 268.747 222.431 265.796 220.724Z" fill="#FFF19F"/>
<path d="M242.826 238.026L211.525 220.107C209.694 219.054 207.617 218.504 205.505 218.51C203.393 218.517 201.32 219.081 199.496 220.146L168.311 238.285C166.489 239.348 164.978 240.869 163.927 242.698C162.877 244.527 162.324 246.6 162.325 248.709L162.447 284.792C162.459 286.904 163.025 288.977 164.089 290.802C165.152 292.628 166.675 294.143 168.507 295.197L199.799 313.115C201.631 314.169 203.709 314.722 205.823 314.716C207.936 314.71 210.011 314.146 211.837 313.081L243.031 294.937C244.847 293.866 246.351 292.339 247.396 290.508C248.441 288.677 248.989 286.605 248.987 284.497L248.865 248.415C248.851 246.308 248.286 244.24 247.227 242.417C246.167 240.595 244.65 239.081 242.826 238.026Z" fill="#FFEB6F"/>
<path d="M84.3494 238.388L53.05 220.47C51.2186 219.417 49.142 218.866 47.0297 218.873C44.9174 218.88 42.8442 219.444 41.0197 220.508L9.83448 238.647C8.01309 239.711 6.50201 241.232 5.45179 243.061C4.40157 244.89 3.84884 246.962 3.84863 249.071L3.97171 285.154C3.98405 287.267 4.55002 289.34 5.6133 291.165C6.67659 292.991 8.19997 294.506 10.0315 295.559L41.3225 313.477C43.1546 314.532 45.2325 315.084 47.3464 315.078C49.4603 315.072 51.5351 314.509 53.3612 313.444L84.5551 295.299C86.3708 294.228 87.8754 292.702 88.9201 290.871C89.9648 289.04 90.5135 286.968 90.5117 284.86L90.3914 248.773C90.3762 246.666 89.8108 244.599 88.751 242.777C87.6913 240.956 86.1739 239.443 84.3494 238.388V238.388Z" fill="#FFDD0F"/>
<path d="M228.628 249.305L209.281 238.228C208.149 237.577 206.866 237.237 205.561 237.241C204.255 237.245 202.974 237.594 201.846 238.252L182.576 249.462C181.451 250.119 180.517 251.06 179.868 252.19C179.219 253.321 178.877 254.601 178.877 255.905L178.953 278.206C178.96 279.511 179.31 280.792 179.968 281.921C180.625 283.049 181.566 283.985 182.698 284.636L202.037 295.711C203.17 296.362 204.454 296.704 205.761 296.7C207.068 296.696 208.35 296.348 209.479 295.69L228.758 284.476C229.88 283.814 230.81 282.871 231.455 281.739C232.101 280.608 232.44 279.327 232.439 278.024L232.363 255.723C232.354 254.421 232.004 253.143 231.349 252.017C230.694 250.891 229.756 249.956 228.628 249.305V249.305Z" fill="#FFDD0F"/>
<path d="M107.322 221.26L56.6779 192.262C53.7151 190.559 50.3551 189.667 46.9375 189.678C43.5199 189.689 40.1657 190.602 37.214 192.325L-13.2431 221.673C-16.1903 223.393 -18.6353 225.856 -20.3346 228.815C-22.0339 231.774 -22.9282 235.127 -22.9282 238.539L-22.7304 296.92C-22.71 300.339 -21.7937 303.693 -20.0729 306.647C-18.3521 309.601 -15.8868 312.053 -12.923 313.757L37.7061 342.749C40.6706 344.454 44.0329 345.348 47.4531 345.338C50.8734 345.328 54.2307 344.416 57.1855 342.694L107.656 313.336C110.594 311.604 113.029 309.134 114.719 306.171C116.408 303.209 117.295 299.856 117.292 296.446L117.094 238.064C117.07 234.655 116.156 231.311 114.442 228.363C112.728 225.416 110.273 222.967 107.322 221.26V221.26Z" fill="#FFF19F"/>
<path d="M6.33166 -7.32235L-24.9722 -25.2446C-26.8035 -26.2973 -28.8802 -26.848 -30.9925 -26.8412C-33.1048 -26.8344 -35.1778 -26.2703 -37.0023 -25.2059L-68.1875 -7.06682C-70.0092 -6.00393 -71.5205 -4.48216 -72.5708 -2.65318C-73.6211 -0.824195 -74.1736 1.2481 -74.1733 3.35719L-74.0505 39.44C-74.0391 41.5535 -73.4735 43.627 -72.4101 45.4536C-71.3468 47.2802 -69.8227 48.7959 -67.9905 49.8494L-36.6996 67.7673C-34.8676 68.822 -32.7895 69.3743 -30.6756 69.3684C-28.5617 69.3625 -26.4868 68.7986 -24.6607 67.7338L6.53308 49.5896C8.3488 48.5186 9.85332 46.9921 10.8979 45.1611C11.9425 43.3301 12.4908 41.2581 12.4887 39.1501L12.3666 3.06813C12.3532 0.96054 11.7893 -1.10694 10.7307 -2.92947C9.67219 -4.75201 8.15565 -6.26633 6.33166 -7.32235V-7.32235Z" fill="#FFDD0F"/>
<path d="M83.9432 -39.5546L52.6427 -57.4777C50.8115 -58.5304 48.735 -59.0812 46.6228 -59.0744C44.5106 -59.0676 42.4378 -58.5035 40.6134 -57.439L9.42823 -39.3C7.60655 -38.2371 6.09518 -36.7153 5.04491 -34.8863C3.99464 -33.0573 3.44216 -30.985 3.44238 -28.8759L3.56441 7.20685C3.57625 9.32027 4.14208 11.3937 5.20537 13.2202C6.26867 15.0467 7.79242 16.5624 9.6244 17.6163L40.9163 35.5342C42.7483 36.5889 44.8263 37.1412 46.9402 37.1353C49.0541 37.1294 51.1289 36.5655 52.955 35.5007L84.1488 17.3565C85.9645 16.2855 87.4691 14.759 88.5136 12.928C89.5582 11.097 90.1067 9.02495 90.1046 6.91693L89.9824 -29.165C89.9684 -31.2729 89.4037 -33.3405 88.3444 -35.1629C87.285 -36.9853 85.7679 -38.4993 83.9432 -39.5546Z" fill="#FFEB6F"/>
<path d="M83.9432 237.669L52.6427 219.746C50.8115 218.693 48.735 218.143 46.6228 218.149C44.5106 218.156 42.4378 218.72 40.6134 219.785L9.42823 237.924C7.60655 238.987 6.09518 240.509 5.04491 242.338C3.99464 244.167 3.44216 246.239 3.44238 248.348L3.56441 284.431C3.57625 286.544 4.14208 288.618 5.20537 290.444C6.26867 292.271 7.79242 293.786 9.6244 294.84L40.9163 312.758C42.7483 313.813 44.8263 314.365 46.9402 314.359C49.0541 314.353 51.1289 313.789 52.955 312.725L84.1488 294.58C85.9645 293.509 87.4691 291.983 88.5136 290.152C89.5582 288.321 90.1067 286.249 90.1046 284.141L89.9824 248.059C89.9684 245.951 89.4037 243.883 88.3444 242.061C87.285 240.239 85.7679 238.725 83.9432 237.669Z" fill="#FFEB6F"/>
</g>
<defs>
<clipPath id="clip0">
<rect width="256" height="256" rx="128" fill="white"/>
</clipPath>
</defs>
</svg>
